<svg width="171" height="37" viewBox="0 0 171 37" fill="none" xmlns="http://www.w3.org/2000/svg">
<g clip-path="url(#clip0_2243_8093)">
<path d="M28.2688 11.77V10.4697C29.0964 10.5662 29.8901 10.8525 30.5874 11.306C31.2847 11.7595 31.8665 12.3678 32.2869 13.083C32.7073 13.7982 32.9549 14.6007 33.0101 15.4272C33.0653 16.2537 32.9266 17.0817 32.6049 17.8458L31.4681 17.1934C31.6794 16.6293 31.7618 16.0255 31.7092 15.4259C31.6566 14.8262 31.4704 14.2457 31.1641 13.7264C30.8577 13.2072 30.439 12.7622 29.9382 12.4238C29.4374 12.0854 28.8672 11.8621 28.2688 11.77ZM5.37105 17.2364C5.15176 16.6714 5.06257 16.0648 5.11 15.461C5.15744 14.8573 5.3403 14.2718 5.64517 13.7475C5.95004 13.2232 6.36917 12.7734 6.87178 12.4312C7.3744 12.089 7.94773 11.8631 8.54968 11.77V10.4697C7.71819 10.5669 6.92102 10.8558 6.22163 11.3133C5.52225 11.7708 4.93998 12.3843 4.52117 13.105C4.10236 13.8256 3.85858 14.6335 3.80924 15.4644C3.75991 16.2952 3.90637 17.126 4.23698 17.8906L5.37105 17.2364ZM18.4101 35.7078C17.8032 35.7077 17.2039 35.5729 16.6561 35.313C16.1083 35.0531 15.6259 34.6749 15.2441 34.2058L14.1073 34.86C14.6107 35.5277 15.2643 36.0689 16.0159 36.4404C16.7675 36.8119 17.5961 37.0033 18.4354 36.9993C19.2748 36.9953 20.1015 36.796 20.8494 36.4173C21.5974 36.0387 22.2458 35.4912 22.7427 34.8188L21.6077 34.1682C21.2262 34.6482 20.7404 35.036 20.1866 35.3027C19.6328 35.5693 19.0255 35.7078 18.4101 35.7078ZM36.9221 21.8713V31.6984L28.358 36.612L19.7939 31.6984V27.8387C18.9309 27.527 17.9872 27.515 17.1165 27.8047V31.6984L8.56411 36.612L0 31.6984V21.8713L4.92481 19.0449L4.89146 19.0045L6.02823 18.3521C6.03905 18.3656 6.05077 18.3781 6.06249 18.3916L8.5614 16.9577L11.8455 18.8396C12.5109 18.2676 12.9725 17.4972 13.1617 16.6432L9.84692 14.7407V11.778V10.4759V4.91356L18.4101 0L26.9742 4.91356V14.7407L23.6595 16.6414C23.8513 17.5165 24.3285 18.3041 25.0171 18.8818L28.3607 16.9622L30.7947 18.3575C30.8055 18.3441 30.8182 18.3315 30.829 18.3181L31.9649 18.9696C31.954 18.9839 31.9423 18.9965 31.9324 19.0108L36.9221 21.8713ZM26.3234 19.6148C26.8866 19.8071 27.4854 19.8738 28.0775 19.8102C28.6695 19.7465 29.2402 19.5541 29.749 19.2465L28.3562 18.4471L26.3234 19.6148ZM25.6716 13.9368V12.2297C25.1332 12.5261 24.669 12.9394 24.3136 13.4388C23.9582 13.9383 23.7207 14.511 23.6189 15.1144L25.6716 13.9368ZM11.1433 10.8003C12.1479 11.1931 13.0104 11.8773 13.6185 12.7641C14.2266 13.6508 14.5521 14.699 14.5527 15.7721V15.8859L18.4101 18.1021L22.2712 15.8859V15.7721C22.2716 14.6994 22.5968 13.6516 23.2043 12.7651C23.8119 11.8785 24.6738 11.1942 25.6779 10.8012V5.59821L18.4101 1.43383L11.146 5.59821L11.1433 10.8003ZM11.1433 13.9368L13.2004 15.1171C13.0989 14.5125 12.8611 13.9385 12.5048 13.4382C12.1486 12.9379 11.6831 12.5241 11.1433 12.2279V13.9368ZM8.56411 18.4471L7.12173 19.2752C7.6367 19.5762 8.21204 19.7609 8.8069 19.816C9.40175 19.8712 10.0015 19.7954 10.5636 19.5942L8.56411 18.4471ZM8.56411 35.1226L13.1067 32.5157C12.9262 31.4242 13.0909 30.3039 13.5783 29.3095C14.0656 28.3151 14.8515 27.4955 15.8274 26.9641V22.616L11.9239 20.3756C10.9939 20.9243 9.91884 21.181 8.83955 21.1122C7.76027 21.0435 6.727 20.6524 5.87498 19.9903L1.29994 22.616V30.9501L8.56411 35.1226ZM15.8274 28.5171C15.3599 28.8971 14.9833 29.3756 14.7248 29.9181C14.4663 30.4605 14.3324 31.0534 14.3327 31.6536V31.8131L15.8238 30.9573L15.8274 28.5171ZM19.802 26.4873V21.8713L23.8416 19.553C23.2136 18.9284 22.7514 18.1586 22.4966 17.3126L18.4128 19.656L14.3336 17.3117C14.0838 18.1417 13.6342 18.8987 13.0238 19.5171L17.1282 21.8713V26.4622C18.0085 26.246 18.9296 26.2546 19.8056 26.4873H19.802ZM21.0948 30.9537L22.4857 31.7522V31.6518C22.4856 31.0745 22.3612 30.5039 22.1208 29.9784C21.8804 29.4528 21.5296 28.9845 21.092 28.6049L21.0948 30.9537ZM35.6231 22.6196L30.9931 19.958C30.1485 20.6281 29.1203 21.0294 28.0427 21.1093C26.9651 21.1892 25.8883 20.9442 24.9531 20.4061L21.0948 22.616V27.0223C22.0333 27.5603 22.7865 28.3676 23.2556 29.3384C23.7247 30.3092 23.8878 31.3983 23.7235 32.4628L28.3589 35.1226L35.6231 30.9537V22.6196Z" fill="url(#paint0_linear_2243_8093)"/>
<path d="M66.699 28.8953C66.7011 29.1337 66.6554 29.3701 66.5647 29.5907C66.478 29.7997 66.3492 29.9888 66.1861 30.1463C65.8498 30.4691 65.4005 30.6493 64.933 30.6491H57.0342C56.2736 30.6484 55.5152 30.5682 54.7715 30.4098C54.0065 30.2472 53.2631 29.9963 52.5565 29.6624C51.8336 29.3237 51.1567 28.8955 50.5417 28.3881C49.9023 27.8588 49.3457 27.2379 48.8902 26.5456C48.4004 25.7955 48.0257 24.977 47.7787 24.1171C47.4983 23.1203 47.3623 22.089 47.3748 21.0541V11.4411H50.8798V21.0541C50.8798 22.0368 51.0171 22.8679 51.2918 23.5471C51.5336 24.1737 51.8889 24.7508 52.3402 25.2498C52.7354 25.681 53.2034 26.0401 53.7231 26.3108C54.1802 26.5516 54.6615 26.7438 55.1591 26.8844C55.551 26.9974 55.9522 27.0751 56.3581 27.1165C56.7034 27.147 56.9305 27.1631 57.0396 27.1631H63.1941V11.434H66.6981L66.699 28.8953Z" fill="white"/>
<path d="M76.7821 30.6481H75.2189C74.6724 30.6417 74.1296 30.556 73.608 30.3936C73.0279 30.2182 72.4869 29.9341 72.0142 29.5566C71.5012 29.1441 71.0829 28.6275 70.7872 28.0412C70.4639 27.4241 70.3022 26.6629 70.3022 25.7578V10.0413H73.8072V25.7605C73.7983 25.9499 73.8297 26.139 73.8993 26.3155C73.9689 26.492 74.0751 26.6519 74.2111 26.7848C74.4841 27.0402 74.8478 27.1775 75.2226 27.1666H76.7857L76.7821 30.6481Z" fill="white"/>
<path d="M91.7603 19.6489H85.641V30.6482H82.0937V19.6489H77.5376V16.1656H82.0937V11.434H85.641V16.1656H91.7621L91.7603 19.6489Z" fill="white"/>
<path d="M97.6237 13.1894H94.1196V10.0413H97.6237V13.1894ZM97.6237 30.6508H94.1196V16.1655H97.6237V30.6508Z" fill="white"/>
<path d="M120.663 26.43C120.656 26.8983 120.581 27.3632 120.44 27.81C120.283 28.3301 120.02 28.8128 119.669 29.2288C119.318 29.6448 118.885 29.9853 118.397 30.2296C117.856 30.5098 117.195 30.6505 116.414 30.6517H103.113C102.873 30.6536 102.635 30.6079 102.413 30.5173C102.203 30.433 102.013 30.3076 101.852 30.1485C101.692 29.9895 101.566 29.8001 101.481 29.5916C101.39 29.371 101.344 29.1346 101.346 28.8962V13.1894C101.344 12.9551 101.39 12.7228 101.481 12.5066C101.567 12.2973 101.693 12.1064 101.851 11.9438C102.01 11.7817 102.201 11.6539 102.411 11.5683C102.633 11.4778 102.87 11.4321 103.11 11.4339H114.837C115.309 11.4418 115.777 11.52 116.226 11.666C116.728 11.8219 117.196 12.0692 117.608 12.3955C118.052 12.7514 118.415 13.197 118.672 13.7029C118.955 14.2406 119.097 14.8978 119.098 15.6744V16.3295C119.089 17.0044 118.984 17.6747 118.788 18.3208C118.574 19.0448 118.236 19.7268 117.79 20.3371C118.193 20.5841 118.566 20.8764 118.902 21.2081C119.257 21.5596 119.563 21.9565 119.812 22.3884C120.085 22.8635 120.293 23.3724 120.432 23.9019C120.592 24.5101 120.67 25.1365 120.665 25.765L120.663 26.43ZM117.158 25.7605C117.165 25.3417 117.091 24.9255 116.942 24.5337C116.806 24.1868 116.6 23.8714 116.336 23.6071C116.068 23.3434 115.746 23.1402 115.392 23.0112C114.995 22.8669 114.574 22.7962 114.151 22.8024H106.253V19.2877H112.575C112.997 19.2935 113.417 19.2228 113.814 19.0789C114.167 18.9508 114.488 18.7478 114.753 18.4839C115.019 18.22 115.224 17.9016 115.353 17.551C115.497 17.1584 115.568 16.7429 115.562 16.325V15.6691C115.562 15.169 115.319 14.919 114.834 14.919H104.843V27.1666H116.41C116.487 27.1661 116.565 27.1617 116.642 27.1532C116.728 27.1453 116.811 27.1181 116.885 27.0734C116.968 27.0151 117.033 26.935 117.073 26.8422C117.133 26.7026 117.161 26.5513 117.155 26.3995L117.158 25.7605Z" fill="white"/>
<path d="M138.996 20.9617C138.989 21.4921 138.903 22.0184 138.74 22.5237C138.565 23.0892 138.284 23.6165 137.911 24.0776C137.502 24.5771 136.993 24.9858 136.415 25.2775C135.799 25.5995 135.05 25.7605 134.17 25.7605H127.848V22.4448H134.17C134.646 22.4448 135.014 22.2996 135.276 22.0093C135.538 21.7128 135.678 21.3286 135.667 20.9339C135.667 20.4781 135.521 20.1196 135.228 19.8585C134.938 19.6001 134.559 19.4614 134.17 19.4705H127.848C127.371 19.4705 127.003 19.6157 126.742 19.906C126.48 20.2028 126.34 20.5869 126.351 20.9814V25.8457C126.351 26.3093 126.497 26.6713 126.789 26.9318C127.088 27.1925 127.474 27.3311 127.871 27.3198H134.162V30.6481H127.84C127.306 30.6409 126.777 30.5551 126.269 30.3936C125.7 30.2199 125.169 29.9401 124.705 29.5692C124.205 29.1641 123.795 28.6587 123.504 28.086C123.182 27.4749 123.02 26.7311 123.019 25.8546V20.9617C123.027 20.4316 123.114 19.9055 123.276 19.4006C123.45 18.8352 123.731 18.3078 124.104 17.8467C124.513 17.3469 125.023 16.9381 125.601 16.6468C126.216 16.3253 126.964 16.1649 127.845 16.1655H134.168C134.701 16.1734 135.23 16.2598 135.737 16.4218C136.333 16.6015 136.885 16.8995 137.362 17.2976C137.838 17.6958 138.228 18.186 138.508 18.7384C138.833 19.3459 138.996 20.0871 138.996 20.9617Z" fill="white"/>
<path d="M154.605 19.6489H148.484V30.6482H144.942V19.6489H140.388V16.1656H144.945V11.434H148.491V16.1656H154.611L154.605 19.6489Z" fill="white"/>
<path d="M170.999 25.7606C171.005 26.3069 170.927 26.851 170.766 27.3736C170.627 27.8194 170.423 28.2421 170.159 28.6282C169.917 28.9804 169.622 29.293 169.284 29.5549C168.96 29.8035 168.608 30.0126 168.234 30.1777C167.553 30.4797 166.817 30.6401 166.071 30.649H156.581V27.1666H166.046C166.522 27.1666 166.881 27.0471 167.124 26.8082C167.366 26.5692 167.487 26.2218 167.489 25.766C167.444 24.8393 166.972 24.376 166.073 24.376H160.64C159.864 24.376 159.207 24.2422 158.671 23.9746C158.168 23.7334 157.72 23.391 157.357 22.9691C157.031 22.5875 156.784 22.146 156.63 21.6697C156.489 21.2503 156.413 20.8117 156.407 20.3694C156.407 19.5927 156.546 18.9355 156.825 18.3979C157.077 17.8971 157.435 17.4564 157.873 17.1056C158.281 16.7815 158.748 16.5382 159.248 16.3887C159.697 16.2473 160.165 16.1727 160.637 16.1674H169.251V19.6507H160.675C160.531 19.6454 160.387 19.6658 160.25 19.7107C160.158 19.7415 160.078 19.7974 160.017 19.872C159.968 19.934 159.937 20.008 159.927 20.0862C159.918 20.1597 159.913 20.2336 159.913 20.3075C159.914 20.4236 159.942 20.5377 159.994 20.6418C160.031 20.7166 160.09 20.779 160.162 20.821C160.234 20.8578 160.314 20.8784 160.395 20.8811C160.485 20.8811 160.563 20.8882 160.645 20.8882H166.077C166.975 20.8882 167.739 21.0487 168.369 21.3695C168.958 21.6597 169.478 22.0734 169.891 22.582C170.27 23.0543 170.556 23.5933 170.735 24.1708C170.901 24.685 170.99 25.2207 170.999 25.7606Z" fill="white"/>
</g>
<defs>
<linearGradient id="paint0_linear_2243_8093" x1="0" y1="18.5" x2="36.9221" y2="18.5" gradientUnits="userSpaceOnUse">
<stop stop-color="#E28933"/>
<stop offset="1" stop-color="#BD3B32"/>
</linearGradient>
<clipPath id="clip0_2243_8093">
<rect width="171" height="37" fill="white"/>
</clipPath>
</defs>
</svg>
